<svg width="33" height="33" viewBox="0 0 33 33" fill="none" xmlns="http://www.w3.org/2000/svg">
<g clip-path="url(#clip0_20217_1387)">
<path d="M31.6662 13.0026L29.3332 12.536C29.0765 11.6852 28.7363 10.8637 28.3172 10.0824L29.6368 8.10313C29.8847 7.73125 29.8357 7.23612 29.5197 6.92019L25.9842 3.38462C25.6682 3.06862 25.173 3.01962 24.8012 3.26744L22.8218 4.587C22.0406 4.168 21.2191 3.82788 20.3682 3.57113L19.9017 1.238C19.8141 0.799812 19.4293 0.484375 18.9824 0.484375H13.9824C13.5355 0.484375 13.1507 0.799812 13.0631 1.238L12.5965 3.57113C11.7457 3.82788 10.9242 4.16806 10.143 4.587L8.16355 3.26744C7.7918 3.01962 7.29661 3.06862 6.98061 3.38462L3.44511 6.92019C3.12905 7.23619 3.08005 7.73131 3.32798 8.10313L4.64755 10.0824C4.22848 10.8637 3.88836 11.6852 3.63161 12.536L1.29855 13.0026C0.860359 13.0902 0.544922 13.475 0.544922 13.9219V18.9219C0.544922 19.3687 0.860359 19.7536 1.29861 19.8411L3.63167 20.3078C3.88836 21.1585 4.22855 21.98 4.64761 22.7612L3.32805 24.7406C3.08011 25.1124 3.12917 25.6076 3.44517 25.9236L6.98067 29.4591C7.29673 29.7751 7.7918 29.8241 8.16361 29.5763L10.1025 28.2838V22.3984C8.63423 20.8356 7.73242 18.7359 7.73242 16.4219C7.73242 11.5894 11.6499 7.67188 16.4824 7.67188C21.3149 7.67188 25.2324 11.5894 25.2324 16.4219C25.2324 18.7359 24.3306 20.8356 22.8624 22.3984V28.2838L24.8012 29.5763C24.9599 29.682 25.1409 29.7337 25.3209 29.7337C25.5629 29.7337 25.803 29.6403 25.9841 29.4591L29.5196 25.9236C29.8356 25.6076 29.8847 25.1125 29.6367 24.7407L28.3172 22.7613C28.7362 21.9801 29.0764 21.1586 29.3331 20.3078L31.6662 19.8412C32.1045 19.7536 32.4199 19.3687 32.4199 18.9219V13.9219C32.4199 13.475 32.1045 13.0902 31.6662 13.0026Z" fill="white"/>
<path d="M19.4524 11.2841C18.9805 11.0108 18.3819 11.3008 18.304 11.8405L17.7324 15.796H15.2324L14.6609 11.8405C14.5829 11.3008 13.9844 11.0108 13.5125 11.2841C11.682 12.3445 10.5449 14.3128 10.5449 16.421C10.5449 18.7055 11.8243 20.7491 13.8837 21.7543L13.9824 21.8025V31.546C13.9824 32.0637 14.4022 32.4835 14.9199 32.4835H18.0449C18.5627 32.4835 18.9824 32.0637 18.9824 31.546V21.8025L19.0811 21.7543C21.1405 20.7491 22.4199 18.7055 22.4199 16.421C22.4199 14.3128 21.2829 12.3445 19.4524 11.2841Z" fill="white"/>
</g>
<defs>
<clipPath id="clip0_20217_1387">
<rect width="32" height="32" fill="white" transform="translate(0.482422 0.484375)"/>
</clipPath>
</defs>
</svg>
