<svg width="33" height="33" viewBox="0 0 33 33" fill="none" xmlns="http://www.w3.org/2000/svg">
<g clip-path="url(#clip0_20217_1393)">
<path d="M13.9824 24.459V27.4844C13.9824 28.5874 14.8794 29.4844 15.9824 29.4844H27.9824C29.0854 29.4844 29.9824 28.5874 29.9824 27.4844V5.48438C29.9824 4.38135 29.0854 3.48438 27.9824 3.48438H15.9824C14.8794 3.48438 13.9824 4.38135 13.9824 5.48438V7.5097C13.6435 7.52954 13.3096 7.56641 12.9824 7.62506V5.48438C12.9824 3.83008 14.3281 2.48438 15.9824 2.48438H27.9824C29.6367 2.48438 30.9824 3.83008 30.9824 5.48438V27.4844C30.9824 29.1387 29.6367 30.4844 27.9824 30.4844H15.9824C14.3281 30.4844 12.9824 29.1387 12.9824 27.4844V24.3437C13.3096 24.4023 13.6435 24.4392 13.9824 24.459Z" fill="white"/>
<path d="M20.7779 14.3959C20.9065 14.9053 20.9824 15.4355 20.9824 15.9844C20.9824 19.5684 18.0664 22.4844 14.4824 22.4844C10.8984 22.4844 7.98241 19.5684 7.98241 15.9844C7.98241 12.4004 10.8984 9.48438 14.4824 9.48438C17.1258 9.48438 19.4015 11.073 20.4162 13.3436L21.1642 12.5956C19.9237 10.16 17.3975 8.48438 14.4824 8.48438C10.3473 8.48438 6.98241 11.8488 6.98241 15.9844C6.98241 17.6274 7.51976 19.1438 8.4193 20.3808L7.64091 21.1592C7.24815 20.8107 6.65147 20.8153 6.27531 21.1915L3.60374 23.863C2.77531 24.6915 2.77531 26.0346 3.60374 26.863C4.43217 27.6915 5.77531 27.6915 6.60374 26.863L9.27531 24.1915C9.65147 23.8153 9.65611 23.2186 9.3076 22.8259L10.086 22.0475C11.323 22.947 12.8395 23.4844 14.4824 23.4844C18.6175 23.4844 21.9824 20.1199 21.9824 15.9844C21.9824 15.1465 21.8382 14.3432 21.5836 13.5902L20.7779 14.3959Z" fill="white"/>
<path d="M14.1289 13.6309C14.3242 13.4355 14.6406 13.4355 14.8359 13.6309L17.4824 16.2773L19.6473 14.1124C18.879 12 16.8568 10.4844 14.4824 10.4844C11.4502 10.4844 8.98242 12.9517 8.98242 15.9844C8.98242 16.8014 9.16638 17.5746 9.48737 18.2724L14.1289 13.6309Z" fill="white"/>
<path d="M17.8359 17.3379C17.6406 17.5332 17.3242 17.5332 17.1289 17.3379L14.4824 14.6914L10.0059 19.168C11.0041 20.5673 12.6368 21.4844 14.4824 21.4844C17.5146 21.4844 19.9824 19.0171 19.9824 15.9844C19.9824 15.7336 19.9597 15.4887 19.9271 15.2468L17.8359 17.3379Z" fill="white"/>
<path d="M27.9824 4.48438H23.9824C23.9824 5.58893 23.087 6.48438 21.9824 6.48438C20.8779 6.48438 19.9824 5.58893 19.9824 4.48438H15.9824C15.4301 4.48438 14.9824 4.93207 14.9824 5.48438V7.5097C17.9584 7.68414 20.5228 9.39636 21.9011 11.8586L24.2754 9.48438H23.4824C23.2061 9.48438 22.9824 9.26074 22.9824 8.98438C22.9824 8.70801 23.2061 8.48438 23.4824 8.48438H25.4824C25.7588 8.48438 25.9824 8.70801 25.9824 8.98438V10.9844C25.9824 11.2607 25.7588 11.4844 25.4824 11.4844C25.2061 11.4844 24.9824 11.2607 24.9824 10.9844V10.1914L22.3651 12.8088C22.7626 13.7899 22.9824 14.8615 22.9824 15.9844C22.9824 20.5026 19.4359 24.198 14.9824 24.459V27.4844C14.9824 28.0367 15.4301 28.4844 15.9824 28.4844H27.9824C28.5347 28.4844 28.9824 28.0367 28.9824 27.4844V5.48438C28.9824 4.93207 28.5347 4.48438 27.9824 4.48438Z" fill="white"/>
</g>
<defs>
<clipPath id="clip0_20217_1393">
<rect width="32" height="32" fill="white" transform="translate(0.982422 0.484375)"/>
</clipPath>
</defs>
</svg>
